# xmcd
#
# Track frame offsets: 
#        150
#        7836
#        19286
#        34562
#        48456
#        60781
#        74522
#        88476
#        101706
#        114820
#        130284
#        154698
#        164553
#        174587
#        188116
#
# Disc length: 2739 seconds
#
# Revision: 3
# Processed by: cddbd v1.5.2PL0 Copyright (c) Steve Scherf et al.
# Submitted via: ExactAudioCopy v0.99pb4
#
DISCID=c00ab10f
DTITLE=Frank Sinatra - 10 CD Set [CD 6)
DYEAR=2005
DGENRE=Jazz
TTITLE0=It Had To Be You
TTITLE1=If Loveliness Were Music
TTITLE2=I've Had This Feeling Before
TTITLE3=My Heart Tells Me
TTITLE4=I Couldn't Sleep A Wink Last Night
TTITLE5=San Fernando Valley
TTITLE6=I'll Be Seeing You
TTITLE7=It Could Happen To You
TTITLE8=Amor
TTITLE9=I'll Walk Alone
TTITLE10=Porgy And Bess Medley
TTITLE11=Together
TTITLE12=The Trolley Song
TTITLE13=With A Song In My Heart
TTITLE14=Begin The Beguine
EXTD=YEAR: 2005
EXTT0=
EXTT1=
EXTT2=
EXTT3=
EXTT4=
EXTT5=
EXTT6=
EXTT7=
EXTT8=
EXTT9=
EXTT10=
EXTT11=
EXTT12=
EXTT13=
EXTT14=
PLAYORDER=
